<svg width="27" height="27" viewBox="0 0 27 27" fill="none" xmlns="http://www.w3.org/2000/svg">
<path d="M13.5 14.2906C10.1586 14.2906 7.43909 11.571 7.43909 8.2296C7.43909 4.88818 10.1586 2.16866 13.5 2.16866C16.8415 2.16866 19.561 4.88818 19.561 8.2296C19.561 11.571 16.8415 14.2906 13.5 14.2906ZM13.5 3.74977C11.0335 3.74977 9.0202 5.76306 9.0202 8.2296C9.0202 10.6961 11.0335 12.7094 13.5 12.7094C15.9666 12.7094 17.9799 10.6961 17.9799 8.2296C17.9799 5.76306 15.9666 3.74977 13.5 3.74977Z" fill="#292D32"/>
<path d="M22.5547 24.8313C22.1225 24.8313 21.7641 24.4729 21.7641 24.0408C21.7641 20.4042 18.0538 17.4528 13.5002 17.4528C8.94656 17.4528 5.23621 20.4042 5.23621 24.0408C5.23621 24.4729 4.87782 24.8313 4.44565 24.8313C4.01348 24.8313 3.65509 24.4729 3.65509 24.0408C3.65509 19.5399 8.07167 15.8717 13.5002 15.8717C18.9287 15.8717 23.3453 19.5399 23.3453 24.0408C23.3453 24.4729 22.9869 24.8313 22.5547 24.8313Z" fill="#292D32"/>
</svg>
