<svg width="15" height="15" viewBox="0 0 15 15" fill="none" xmlns="http://www.w3.org/2000/svg">
<path d="M7.1875 13.3357C3.65625 13.3357 0.78125 10.5757 0.78125 7.18571C0.78125 3.79571 3.65625 1.03571 7.1875 1.03571C10.7188 1.03571 13.5938 3.79571 13.5938 7.18571C13.5938 10.5757 10.7188 13.3357 7.1875 13.3357ZM7.1875 1.93571C4.16875 1.93571 1.71875 4.29371 1.71875 7.18571C1.71875 10.0777 4.16875 12.4357 7.1875 12.4357C10.2062 12.4357 12.6562 10.0777 12.6562 7.18571C12.6562 4.29371 10.2062 1.93571 7.1875 1.93571Z" fill="#292D32"/>
<path d="M13.75 13.9357C13.6313 13.9357 13.5125 13.8937 13.4188 13.8037L12.1688 12.6037C11.9875 12.4297 11.9875 12.1417 12.1688 11.9677C12.35 11.7937 12.65 11.7937 12.8313 11.9677L14.0813 13.1677C14.2625 13.3417 14.2625 13.6297 14.0813 13.8037C13.9875 13.8937 13.8688 13.9357 13.75 13.9357Z" fill="#292D32"/>
</svg>
