<svg width="25" height="24" viewBox="0 0 25 24" fill="none" xmlns="http://www.w3.org/2000/svg">
<path d="M5.49848 21.75C4.36018 21.75 3.63858 21.37 3.18122 20.92C2.28684 20.04 1.65671 18.17 3.66907 14.2L4.55328 12.47C4.66508 12.24 4.66508 11.76 4.55328 11.53L3.66907 9.79999C1.64655 5.82999 2.28684 3.94999 3.18122 3.07999C4.06544 2.19999 5.97616 1.56999 10.0009 3.55999L18.7007 7.83999C20.8655 8.89999 22.0547 10.38 22.0547 12C22.0547 13.62 20.8655 15.1 18.7109 16.16L10.011 20.44C8.03933 21.41 6.5758 21.75 5.49848 21.75ZM5.49848 3.74999C4.94965 3.74999 4.52279 3.87999 4.25854 4.13999C3.51661 4.85999 3.81135 6.72999 5.03096 9.11999L5.91518 10.86C6.24041 11.51 6.24041 12.49 5.91518 13.14L5.03096 14.87C3.81135 17.27 3.51661 19.13 4.25854 19.85C4.99031 20.58 6.89086 20.29 9.33008 19.09L18.0299 14.81C19.6256 14.03 20.5301 13 20.5301 11.99C20.5301 10.98 19.6154 9.94999 18.0198 9.16999L9.31992 4.89999C7.77508 4.13999 6.44367 3.74999 5.49848 3.74999Z" fill="#0071FF"/>
<path d="M11.0171 12.75H5.52886C5.11216 12.75 4.7666 12.41 4.7666 12C4.7666 11.59 5.11216 11.25 5.52886 11.25H11.0171C11.4338 11.25 11.7793 11.59 11.7793 12C11.7793 12.41 11.4338 12.75 11.0171 12.75Z" fill="#0071FF"/>
</svg>
